Coordinates
version=1
nRows=13
nColumns=36
inDegrees=yes

Units are S.I. units (second, meters, Newtons, ...)
If the header above contains a line with 'inDegrees', this indicates whether rotational values are in degrees (yes) or radians (no).

endheader
time	pelvis_tilt	pelvis_list	pelvis_rotation	pelvis_tx	pelvis_ty	pelvis_tz	hip_flexion_r	hip_adduction_r	hip_rotation_r	knee_angle_r	knee_angle_r_beta	ankle_angle_r	subtalar_angle_r	mtp_angle_r	hip_flexion_l	hip_adduction_l	hip_rotation_l	knee_angle_l	knee_angle_l_beta	ankle_angle_l	subtalar_angle_l	mtp_angle_l	lumbar_extension	lumbar_bending	lumbar_rotation	arm_flex_r	arm_add_r	arm_rot_r	elbow_flex_r	pro_sup_r	arm_flex_l	arm_add_l	arm_rot_l	elbow_flex_l	pro_sup_l
      0.00000000	      0.93390186	     -3.20711646	      3.04737394	     -0.95372717	      1.25563837	     -0.10670049	      1.52774781	      0.88714664	      2.87449592	     11.00442813	      0.19206350	      1.45539312	    -17.16123505	     -5.81557946	      0.95833479	     -3.19081498	      4.88121020	      9.61146375	      0.16775169	      7.71594186	    -11.67087976	     -5.81557946	    -16.99144901	      3.83037120	      0.75842034	     12.91297513	     -7.25145853	     33.93652226	     19.02365257	     67.45971170	      6.85641225	     -3.48531067	     21.85833964	     21.65518478	     64.57838197
      0.00416670	      1.89825414	     -3.24187827	      3.49302038	     -0.94956875	      1.25715648	     -0.10359548	      0.06334207	      1.65597346	      4.33746835	     10.94068557	      0.19095099	      2.86467520	    -17.01012431	     -6.04672107	     -0.18066610	     -2.88040377	      8.16458404	      9.71741364	      0.16960086	      7.31873326	    -13.98621950	     -6.04672107	    -17.93265344	      3.92643997	      0.85824474	     13.78746977	     -7.03503884	     39.61792877	     16.67495431	     70.59438944	      7.20765834	     -3.79211130	     24.89555932	     21.48250636	     65.55384181
      0.00833330	      1.83868582	     -2.78794798	      3.04475320	     -0.95606528	      1.25780310	     -0.10671172	      0.22438080	      1.06661754	      4.06871220	     10.79032442	      0.18832669	      3.21593139	    -17.76486907	     -6.22212797	     -0.01295934	     -2.18638574	      9.20126343	      9.96035756	      0.17384103	      6.99294190	    -15.88017386	     -6.22212797	    -18.73362291	      3.27794390	      1.26490509	     14.72194809	     -7.14607917	     44.60064583	     15.94144587	     72.65525127	      7.95452909	     -4.14961909	     27.62409688	     21.69161155	     66.65140544
      0.01250000	      3.30408786	     -2.57431270	      3.10461445	     -0.95175051	      1.26023798	     -0.10275101	     -1.52039206	      0.92531849	      4.38388575	     10.40719913	      0.18163989	      3.07771059	    -18.30949758	     -6.25396738	     -1.97498006	     -2.00043488	     10.26543640	      9.16955632	      0.16003895	      6.19006432	    -17.40275441	     -6.25396738	    -20.90051079	      2.87250610	      1.53429419	     15.10176643	     -7.08961746	     45.95519475	     15.73388120	     73.08856373	      8.65210682	     -4.19553757	     28.43067769	     21.40902183	     66.97290358
      0.01666670	      3.64910442	     -2.46423886	      2.87947364	     -0.95813315	      1.26056464	     -0.10634184	     -1.70304726	      0.67916872	      4.27180621	     10.50318427	      0.18331515	      2.97646282	    -19.11525156	     -6.37418825	     -2.43486083	     -1.72310152	     11.12263140	      8.91625734	      0.15561805	      5.75809086	    -19.19375589	     -6.37418825	    -21.78237634	      2.88910131	      1.68122175	     16.22142895	     -7.41675769	     52.10096081	     14.97159108	     74.55034123	      9.55647593	     -4.28285960	     32.80487178	     20.54365999	     68.60892459
      0.02083330	      4.65686100	     -2.27724120	      3.07003249	     -0.95318959	      1.26139510	     -0.10229343	     -3.01863421	      0.61092139	      4.42191362	     10.08951753	      0.17609530	      2.78929603	    -19.57636230	     -6.40444173	     -3.70845832	     -1.69770985	     11.82610833	      8.73609840	      0.15247368	      5.84017812	    -19.75594417	     -6.40444173	    -23.16808435	      2.63456038	      1.65088847	     16.63172839	     -7.25133334	     53.08466784	     14.65833207	     74.45863482	     10.11073402	     -4.29326240	     33.45712868	     20.00038839	     68.83929241
      0.02500000	      5.08131459	     -2.16257680	      3.13481461	     -0.95322016	      1.26179118	     -0.10179360	     -3.62379053	      0.59073153	      4.52479666	      9.96738203	      0.17396363	      2.65684991	    -20.13235523	     -6.93112843	     -4.29533337	     -1.68193927	     12.37792201	      8.69433439	      0.15174476	      5.93054486	    -20.28904651	     -6.93112843	    -23.70880103	      2.45123380	      1.60755973	     17.52925584	     -7.20801096	     61.95072957	     13.63221665	     66.38299923	     10.79538559	     -4.51733108	     37.37896530	     18.92085079	     68.99266471
      0.02916670	      5.56270872	     -2.05428409	      3.17731881	     -0.95405833	      1.26218055	     -0.10206505	     -4.31712973	      0.50649468	      4.55118501	      9.77371565	      0.17058352	      2.29285034	    -21.14674990	     -7.08396280	     -4.83509713	     -1.60503428	     12.77784711	      8.66676572	      0.15126360	      5.58966351	    -21.43846883	     -7.08396280	    -24.38421571	      2.24775166	      1.56172831	     17.80525419	     -7.12385784	     62.36415880	     13.59315794	     65.75992853	     11.01507370	     -4.61867041	     37.88294911	     18.33578158	     68.05446460
      0.03333330	      5.98725763	     -1.92095287	      3.38840573	     -0.95406381	      1.26275669	     -0.10165925	     -4.92961442	      0.47457582	      4.41708274	      9.51485075	      0.16606547	      1.89478538	    -21.54904393	     -7.14350188	     -5.42183018	     -1.55536409	     13.12956558	      8.36366282	      0.14597345	      5.27143511	    -21.94945005	     -7.14350188	    -25.03136962	      2.05575533	      1.41354619	     18.09325263	     -7.15011961	     62.67057363	     13.72707912	     65.29508962	     11.33451692	     -4.78251729	     38.33304639	     18.13971568	     67.46462327
      0.03750000	      6.14433016	     -1.85193110	      3.48386686	     -0.95468592	      1.26283905	     -0.10192631	     -5.13999583	      0.46269172	      4.44239498	      9.43216143	      0.16462227	      1.52134791	    -22.18306466	     -7.34454675	     -5.64381636	     -1.48620987	     13.55559653	      8.33831303	      0.14553102	      5.24845091	    -22.21721460	     -7.34454675	    -25.15783982	      1.94415987	      1.44866236	     18.68805421	     -7.34356804	     69.08141534	     13.47102621	     62.03708851	     11.87975352	     -5.04066481	     43.06254061	     16.91110786	     68.95389564
      0.04166670	      6.36433407	     -1.90624309	      3.56933258	     -0.95437170	      1.26315950	     -0.10174065	     -5.41903254	      0.56277097	      4.61146100	      9.24223966	      0.16130751	      1.10693354	    -22.61813313	     -7.39265918	     -5.88730557	     -1.53117842	     14.12541122	      8.30015260	      0.14486499	      5.10320169	    -22.63251126	     -7.39265918	    -25.47239349	      1.99101687	      1.38630045	     19.00696420	     -7.54636492	     70.81782237	     13.67764428	     62.09944861	     12.09279041	     -5.25076553	     44.75967268	     16.58277504	     68.55210083
      0.04583330	      6.47686654	     -1.94742893	      3.59277601	     -0.95491035	      1.26312908	     -0.10213351	     -5.56471010	      0.65337449	      4.74231204	      9.12070616	      0.15918635	      1.11459776	    -22.87888063	     -7.41547620	     -6.13132709	     -1.59642439	     14.62931713	      8.11518810	      0.14163675	      5.16058338	    -22.65963054	     -7.41547620	    -25.59644522	      2.00993818	      1.27606867	     19.22212916	     -7.57463178	     72.28728922	     13.60234710	     61.46753751	     12.29433557	     -5.42070598	     46.53503074	     16.10042857	     68.60441522
      0.05000000	      6.66675256	     -2.03677434	      3.72106529	     -0.95431706	      1.26709776	     -0.10179318	     -5.89782901	      0.81245346	      4.71698273	      8.92178128	      0.15571446	      0.99482866	    -22.44276620	     -7.42362824	     -6.38680626	     -1.77764977	     15.06745072	      7.94864775	      0.13873007	      5.43377787	    -22.03107704	     -7.42362824	    -25.82093321	      2.09593478	      1.18494929	     19.21432192	     -7.44026873	     71.93478308	     13.25561506	     61.28313571	     12.34833143	     -5.38775345	     46.36621090	     15.68077860	     68.02969269
